<svg height="500" width="500" xmlns="http://www.w3.org/2000/svg"><path d="M0 0v500h500V0z" fill="#0072c6"/><path d="M500 500H168.427L62.077 393.65l52.209-239.364L261.429 78.57l21.97-18.61 95.82 95.82 53.303-11.652L500 211.607z" opacity=".3"/><path d="M283.344 60l-221.25 42.813v290.812L283.344 440V60zm13.969 80.563v74.312l25.968 16.375c.685.2 2.159.214 2.844 0l111.813-75.375c0-8.92-8.305-15.313-13-15.313H297.313zM175.219 183.53c14.6 0 26.4 5.946 35.406 17.906 9.02 11.96 13.531 27.746 13.531 47.313.015 20.11-4.651 36.322-14 48.625-9.348 12.303-21.55 18.469-36.594 18.469-14.657 0-26.578-5.958-35.812-17.875-9.22-11.932-13.875-27.472-13.875-46.625 0-20.224 4.717-36.574 14.094-49.063 9.377-12.488 21.793-18.75 37.25-18.75zm262.75 2.375s-113.573 75.486-109.563 73.031c0 0-4.035 2.455-7.375 0l-23.719-16.28v101H417.72c10.704 0 20.25-6.254 20.25-21.126V185.906zm-263.406 22.469c-8.079 0-14.498 3.796-19.25 11.375-4.753 7.579-7.157 17.605-7.157 30.094 0 12.674 2.404 22.698 7.156 30.062 4.753 7.38 10.98 11.031 18.688 11.031 7.95 0 14.253-3.585 18.906-10.75 4.653-7.164 7-17.127 7-29.843 0-13.26-2.257-23.559-6.781-30.938-4.524-7.364-10.713-11.031-18.563-11.031z" fill="#fff"/></svg>