<svg xmlns="http://www.w3.org/2000/svg" viewBox="0 0 48 48" width="528" height="528"><path d="M21 31a2 2 0 0 0 2 2h17a2 2 0 0 0 2-2V16a2 2 0 0 0-2-2H23a2 2 0 0 0-2 2z" fill="#03a9f4"/><path d="M42 16.977V16c0-.43-.137-.824-.367-1.148l-11.266 6.933-7.539-4.656L22.125 19l8.46 5z" fill="#b3e5fc"/><path d="M27 41.46l-21-4v-28l21-4z" fill="#0277bd"/><path d="M21.215 18.313c-1.098-1.278-2.543-1.915-4.328-1.915-1.89 0-3.407.668-4.551 2.004-1.145 1.336-1.723 3.086-1.723 5.246 0 2.043.567 3.711 1.692 4.985 1.125 1.273 2.593 1.91 4.379 1.91 1.84 0 3.332-.652 4.472-1.977 1.145-1.312 1.711-3.043 1.711-5.199 0-2.086-.55-3.773-1.652-5.055zm-2.164 8.421c-.57.77-1.34 1.153-2.317 1.153-.937 0-1.699-.395-2.285-1.188-.578-.785-.867-1.86-.867-3.21 0-1.337.29-2.415.867-3.223.586-.813 1.371-1.211 2.356-1.211.965 0 1.718.39 2.27 1.175.554.797.831 1.895.831 3.31 0 1.366-.289 2.429-.855 3.194z" fill="#fff"/></svg>