<svg xmlns="http://www.w3.org/2000/svg" viewBox="0 0 48 48" width="528" height="528"><path d="M35 27a1 1 0 0 0 1 1h5a1 1 0 0 0 1-1v-6a1 1 0 0 0-1-1h-5a1 1 0 0 0-1 1zm0 10a1 1 0 0 0 1 1h5a1 1 0 0 0 1-1v-6a1 1 0 0 0-1-1h-5a1 1 0 0 0-1 1z" fill="#ce93d8"/><path d="M38 10H26v28h12a1 1 0 0 0 1-1V11a1 1 0 0 0-1-1z" fill="#9c27b0"/><path d="M35 17a1 1 0 0 0 1 1h5a1 1 0 0 0 1-1v-6a1 1 0 0 0-1-1h-5a1 1 0 0 0-1 1z" fill="#9c27b0"/><path d="M26 30h9v3h-9zm0-5h9v3h-9zm0-5h9v3h-9zm0-5h9v3h-9z" fill="#fff"/><path d="M27 42L6 38V10l21-4z" fill="#7b1fa2"/><path d="M21.227 30.945H18.43l-5.07-8.765c-.297-.508-.505-.89-.622-1.149h-.035c.05.492.07 1.242.07 2.254v7.66h-2.617V17.004h2.985l4.886 8.48c.223.383.43.766.618 1.145h.03c-.042-.32-.066-.969-.066-1.918v-7.707h2.618z" fill="#fff"/></svg>