<svg xmlns="http://www.w3.org/2000/svg" viewBox="0 0 48 48" width="528" height="528"><path d="M41 10H25v28h16c.555 0 1-.445 1-1V11c0-.555-.445-1-1-1z" fill="#ff8a65"/><path d="M24 29h14v2H24zm0 4h14v2H24zm6-18c-3.313 0-6 2.688-6 6 0 3.313 2.688 6 6 6 3.313 0 6-2.688 6-6h-6z" fill="#fbe9e7"/><path d="M32 13v6h6c0-3.313-2.688-6-6-6z" fill="#fbe9e7"/><path d="M27 42L6 38V10l21-4z" fill="#e64a19"/><path d="M16.828 17H12v14h3v-4.824h1.55c1.657 0 2.977-.434 3.966-1.305.988-.867 1.484-2.004 1.484-3.41C22 18.488 20.273 17 16.828 17zm-.535 6.785H15v-4.363h1.293c1.64 0 2.46.719 2.46 2.156 0 1.473-.82 2.207-2.46 2.207z" fill="#fff"/></svg>