<svg viewBox="0 0 128 128" xmlns="http://www.w3.org/2000/svg"><g clip-rule="evenodd" fill-rule="evenodd"><path fill="none" d="M0 0h128v128H0z"/><path d="M27.927 28.905c0-.41.815-.703 1.28-.703 3.724-.176 9.251-.293 15.011-.293 16.116 0 22.4 8.902 22.4 20.264 0 14.876-10.705 21.26-23.854 21.26-2.211 0-2.967-.117-4.538-.117v22.49c0 .468-.175.703-.698.703h-8.902c-.465 0-.698-.176-.698-.703l-.001-62.901zm10.357 31.099c1.338.117 2.386.117 4.713.117 6.808 0 13.207-2.401 13.207-11.713 0-7.438-4.596-11.186-12.335-11.186-2.327 0-4.538.117-5.586.176v22.606zm50.036-6.97c-4.596 0-6.167 2.343-6.167 4.275 0 2.108 1.047 3.573 7.215 6.794 9.134 4.451 11.985 8.726 11.985 14.993 0 9.371-7.098 14.407-16.698 14.407-5.062 0-9.426-1.054-11.927-2.518-.407-.176-.465-.468-.465-.937v-8.609c0-.586.291-.762.698-.468 3.665 2.401 7.854 3.455 11.694 3.455 4.596 0 6.516-1.933 6.516-4.568 0-2.108-1.338-3.982-7.215-7.028-8.262-3.982-11.694-8.024-11.694-14.759 0-7.555 5.877-13.822 16.058-13.822 5.004 0 8.495.761 10.415 1.64.465.293.582.761.582 1.171v8.024c0 .468-.291.762-.873.586-2.56-1.64-6.342-2.636-10.124-2.636zM6 0h116a6 6 0 0 1 6 6v116a6 6 0 0 1-6 6H6a6 6 0 0 1-6-6V6a6 6 0 0 1 6-6z" fill="#2861D3"/></g></svg>