<svg viewBox="0 0 128 128" xmlns="http://www.w3.org/2000/svg"><g clip-rule="evenodd" fill-rule="evenodd"><path fill="none" d="M0 0h128v128H0z"/><path d="M105.576 51.347L94.527 35.958l7.864-5.825 12.257 9.286-9.072 11.928zM64 106.013L33.585 66.021h60.831L64 106.013zM25.591 30.147l10.175 6.035-11.692 17.334-10.723-14.097 12.24-9.272zm21.013 9.844l37.349.297 10.489 14.609H36.548l10.056-14.906zm-5.462-21.622H86.86l6.296 4.77-8.149 6.033-39.796-.314-10.049-5.96 5.98-4.529zm84.654 15.546l-19.277-14.604a5.443 5.443 0 0 0-1.456-1.101L92.076 8.37a5.565 5.565 0 0 0-3.352-1.125H39.277c-1.21 0-2.389.396-3.352 1.125L2.203 33.915a5.565 5.565 0 0 0-1.067 7.803l58.443 76.844c2.224 2.925 6.617 2.925 8.842 0l58.445-76.844a5.567 5.567 0 0 0-1.07-7.803z" fill="#FFC100"/></g></svg>