<svg height="64" width="64" xmlns="http://www.w3.org/2000/svg" xmlns:xlink="http://www.w3.org/1999/xlink"><linearGradient gradientTransform="translate(-2192 -2908)" gradientUnits="userSpaceOnUse" id="a" x1="2256.029" x2="2224.03" y1="2972" y2="2940.001"><stop offset=".316" stop-color="#fff" stop-opacity="0"/><stop offset=".351" stop-color="#e9e9e9" stop-opacity=".05"/><stop offset=".454" stop-color="#acacac" stop-opacity=".202"/><stop offset=".557" stop-color="#787878" stop-opacity=".352"/><stop offset=".657" stop-color="#4d4d4d" stop-opacity=".498"/><stop offset=".753" stop-color="#2b2b2b" stop-opacity=".638"/><stop offset=".844" stop-color="#131313" stop-opacity=".772"/><stop offset=".929" stop-color="#050505" stop-opacity=".896"/><stop offset="1"/></linearGradient><path fill="url(#a)" opacity=".2" d="M64.029 64V30.059L49 15.029 15.059 48.971 30.088 64z"/><circle cx="32" cy="32" fill="#68217A" r="24"/><defs><circle cx="32.029" cy="32" id="b" r="24"/></defs><clipPath id="c"><use overflow="visible" xlink:href="#b"/></clipPath><linearGradient gradientTransform="matrix(1 0 0 -1 -274 -299)" gradientUnits="userSpaceOnUse" id="d" x1="352.766" x2="295.766" y1="-375.233" y2="-318.233"><stop offset=".541" stop-opacity="0"/><stop offset=".684"/></linearGradient><path clip-path="url(#c)" fill="url(#d)" opacity=".3" d="M78.895 51.893v-.062l-.108-.045v-.061l-.105-.045v-.062l-.108-.045v-.059l-.105-.046v-.062l-.108-.045V51.3l-.105-.045v-.062l-.108-.045v-.061l-.105-.045v-.062l-.105-.044v-.062l-.107-.045v-.061l-.106-.045v-.061l-.107-.045v-.06l-.106-.046v-.062l-.108-.045v-.061l-.105-.045v-.062l-.108-.045v-.06l-.105-.045v-.063l-.106-.044v-.061l-.106-.045v-.06l-.106-.045v-.063l-.107-.045v-.06l-.106-.045v-.063l-.107-.045v-.061l-.106-.045v-.062l-.106-.045v-.061l-.106-.045v-.062l-.107-.045v-.06l-.106-.045v-.062l-.106-.043v-.063l-.107-.045v-.06l-.106-.045v-.063l-.107-.045v-.06l-.104-.045v-.063l-.108-.045v-.06l-.106-.045v-.063l-.107-.045v-.06l-.106-.045v-.063l-.106-.042v-.063l-.106-.045v-.06l-.107-.045v-.062l-.106-.045v-.061l-.105-.045v-.062l-.108-.046v-.06l-.106-.045v-.063l-.107-.045v-.06l-.105-.045v-.063l-.108-.043v-.061l-.105-.045v-.061l-.105-.045v-.062l-.108-.045v-.061l-.105-.045v-.062l-.108-.045v-.061l-.106-.045v-.063l-.107-.045v-.06l-.105-.045v-.061l-.108-.045v-.061l-.105-.045v-.062l-.105-.044v-.062l-.108-.045v-.061l-.105-.045v-.061l-.108-.046v-.061l-.105-.045v-.061l-.108-.047v-.059l-.105-.045v-.062l-.108-.045v-.061l-.105-.045v-.062l-.106-.044v-.061l-.106-.045v-.06l-.106-.045v-.063l-.107-.045v-.06l-.106-.045v-.063l-.108-.045v-.061l-.105-.045v-.062l-.108-.045v-.061l-.105-.045v-.062l-.107-.044v-.061l-.105-.045v-.062l-.106-.045v-.061l-.107-.045v-.06l-.106-.045v-.063l-.106-.045v-.06l-.107-.047v-.061l-.106-.045v-.06l-.107-.046V42.9l-.106-.045v-.06l-.106-.045v-.062l-.106-.043v-.063l-.107-.045v-.06l-.106-.045v-.063l-.106-.045v-.06l-.105-.045v-.062l-.108-.046v-.06l-.106-.045v-.063l-.107-.045v-.06l-.106-.045v-.063l-.106-.042v-.062l-.107-.045v-.061l-.106-.045v-.062l-.106-.045v-.061l-.105-.045V41.2l-.108-.046v-.06l-.106-.045v-.063l-.107-.045v-.06l-.105-.045v-.061l-.108-.046v-.061l-.105-.045v-.06l-.105-.045v-.062l-.108-.045v-.061l-.105-.045v-.062l-.108-.045v-.061l-.106-.045v-.061l-.107-.045v-.061l-.105-.045v-.062l-.108-.045v-.061l-.105-.045v-.062l-.105-.044V39.5l-.108-.045v-.062l-.105-.045v-.061l-.108-.045v-.06l-.105-.046v-.062l-.108-.047v-.059l-.105-.045v-.062l-.108-.045v-.061l-.105-.045v-.062l-.106-.044v-.062l-.107-.046v-.06l-.105-.045v-.061l-.108-.046v-.059l-.105-.045v-.063l-.107-.045v-.061l-.106-.045v-.062l-.108-.045v-.06l-.105-.045v-.063l-.108-.045v-.06l-.104-.045v-.062l-.106-.043v-.063l-.107-.045v-.06l-.106-.045v-.063l-.107-.045v-.06l-.106-.045v-.063l-.108-.045v-.06l-.105-.045v-.063l-.106-.045v-.06l-.106-.045v-.063l-.106-.042v-.063l-.107-.045v-.06l-.106-.045v-.063l-.106-.045v-.06l-.107-.046v-.061l-.106-.046v-.06l-.106-.045v-.063l-.107-.045v-.06l-.106-.045v-.063l-.107-.043v-.062l-.105-.045v-.06l-.107-.047v-.06l-.106-.045v-.061l-.105-.045v-.062l-.108-.045v-.061l-.106-.045v-.061l-.107-.045v-.062l-.106-.045v-.063l-.107-.044v-.06l-.105-.045v-.062l-.107-.044v-.062l-.106-.045v-.061l-.105-.045v-.062l-.108-.045v-.061l-.106-.045v-.061l-.107-.045v-.062l-.105-.045v-.061l-.108-.045v-.061l-.105-.045v-.062l-.107-.044v-.062l-.106-.045v-.061l-.105-.045v-.061l-.108-.045v-.062l-.105-.045v-.061l-.108-.045v-.061l-.105-.045v-.062l-.108-.045v-.061l-.105-.045v-.062l-.107-.044v-.062l-.105-.045v-.06l-.106-.046v-.061l-.108-.045v-.061l-.105-.045v-.062l-.107-.045v-.061l-.106-.045v-.062l-.108-.045v-.061l-.105-.045v-.062l-.106-.045v-.06l-.106-.045v-.062l-.106-.045v-.061l-.107-.045v-.061l-.106-.045v-.061l-.107-.045v-.062l-.106-.045v-.062l-.106-.045v-.06l-.107-.046v-.061l-.106-.045v-.061l-.107-.046v-.061l-.105-.044v-.062l-.107-.045v-.061l-.106-.045v-.061l-.107-.045v-.062l-.106-.045v-.061l-.106-.045v-.061l-.107-.046v-.061l-.106-.045v-.061l-.106-.045v-.062l-.107-.045v-.06l-.106-.045v-.062l-.106-.045v-.061l-.106-.045v-.061l-.105-.045v-.061l-.108-.045v-.062l-.107-.046v-.061l-.106-.045v-.061l-.106-.045v-.061l-.107-.045v-.062l-.106-.044v-.062l-.106-.045v-.061l-.106-.045v-.061l-.105-.045v-.062l-.108-.045v-.061l-.105-.045v-.062l-.108-.045v-.061l-.106-.045v-.061l-.107-.045v-.061l-.105-.045v-.062l-.107-.044v-.062l-.106-.044v-.062l-.105-.045v-.061l-.108-.045v-.062l-.105-.045v-.061l-.107-.045v-.061l-.106-.045v-.062l-.108-.045v-.061l-.105-.045v-.061l-.108-.045v-.062l-.105-.044v-.062l-.105-.045v-.061l-.108-.045v-.062l-.105-.044v-.062l-.108-.045v-.061l-.105-.044v-.063l-.108-.045v-.06l-.105-.045v-.062l-.108-.045v-.061l-.105-.045v-.062l-.105-.045v-.061l-.107-.045v-.061l-.106-.045v-.061l-.107-.045v-.062l-.106-.045v-.061l-.106-.045v-.062l-.107-.045v-.061l-.108-.045v-.062l-.105-.045v-.061l-.106-.044v-.062l-.106-.045v-.061l-.106-.045v-.062l-.107-.045v-.06l-.106-.045v-.062l-.106-.045v-.061l-.107-.046v-.061l-.106-.045v-.061l-.106-.045v-.061l-.107-.045v-.062l-.106-.044v-.062l-.104-.044v-.062l-.109-.045v-.061l-.104-.045v-.062l-.108-.045v-.061l-.107-.046v-.061l-.106-.045v-.061l-.106-.045v-.061l-.107-.045v-.062l-.105-.044v-.062l-.107-.045v-.061l-.106-.045v-.061l-.105-.045v-.062L48.7 21.7v-.061l-.104-.044v-.062l-.108-.045v-.061l-.106-.045v-.062l-.107-.045v-.061l-.105-.045v-.062l-.107-.045v-.061l-.106-.044v-.062l-.105-.045v-.061l-.108-.045v-.062l-.105-.045v-.061l-.108-.045v-.062l-.105-.044v-.061l-.108-.045v-.062l-.105-.045v-.061l-.108-.045v-.062L47 20v-.062L40.063 17 28 29l-8-6-3 1v15l.106.07v.035l.107.073v.035l.106.07v.035l.107.073v.035l.105.07v.035l.107.073v.035l.106.069v.036l.107.07v.038l.106.069v.036l.106.07v.036l.106.071v.035l.107.071v.035l.106.073v.034l.107.071v.035l.106.071v.037l.106.069v.035l.106.071v.038l.107.07v.035l.106.07v.037l.106.071v.034l.106.069v.037l.107.073v.034l.106.071v.035l.106.071v.036l.107.071v.034l.106.072v.035l.107.071v.036l.106.07v.038l.106.069v.035l.106.071v.035l.107.072v.035l.106.07v.036l.106.073v.034l.107.071v.034l.106.072v.035l.107.071v.035l.106.069v.038l.106.071v.035l.106.071v.035l.106.071v.035l.107.071v.036l.106.071v.035l.107.071v.034l.106.073v.035l.106.071v.035l.106.07v.037l.107.071v.035l.106.069v.038l.106.07v.035l.106.07v.035l.107.073v.035l.106.07v.035l.107.073v.035l.106.071v.035l.106.072v.035l.106.07v.035l.107.07v.038l.106.07v.035l.106.07v.035l.107.073v.035l.106.07v.035l.107.073v.035l.106.07v.036l.106.072v.035l.106.07v.035l.107.07v.038l.106.07v.035l.106.07v.036l.106.071v.035l.107.071v.035l.106.073v.035l.106.07v.035l.107.073v.034l.106.071v.035l.107.071v.037l.106.07v.035l.107.07v.038l.105.069v.035l.107.071v.035l.106.073v.035l.106.07v.035l.107.073v.033l.106.07v.037l.107.072v.036l.105.069v.036l.107.07v.036l.106.071v.035l.107.071v.035l.106.071v.036l.106.071v.035l.106.071v.035l.107.071v.036l.106.071v.035l.106.07v.036l.107.071v.036l.106.071v.035l.107.071v.036l.105.07v.035l.107.071v.036l.106.071v.035l.107.071v.034l.106.073v.035l.106.071v.035l.107.071v.036l.106.071v.034l.106.07v.038l.106.07v.035l.107.07v.037l.106.071v.035l.106.071v.034l.107.073v.035l.106.071v.035l.106.072v.035l.107.071v.034l.106.07v.038l.107.071v.034l.105.07v.036l.107.072v.035l.106.071v.034l.107.073v.035l.106.07v.036l.106.072v.035l.107.07v.035l.106.07v.038l.106.071v.034l.106.07v.037l.107.071v.035l.106.071v.034l.107.073v.035l.105.07v.035l.107.073v.034l.106.07v.036l.107.071v.037l.106.069v.036l.106.07v.036l.107.071v.036l.105.07v.035l.107.072v.035l.106.071v.035l.107.073v.034l.106.07v.036l.107.073v.033l.106.07v.037l.107.07v.036l.105.07v.036l.106.071v.035l.107.072v.035l.106.071v.035l.107.073v.034l.104.07v.036l.108.073v.033l.106.071v.035l.107.071v.036l.106.071v.035l.107.071v.036l.106.071v.035l.106.071v.035l.106.071v.036l.105.071v.035l.108.073v.033l.106.071v.035l.107.072v.035l.106.071v.035l.107.071v.036l.106.071v.034l.104.07v.035l.108.073v.035l.105.071v.034l.108.073v.035l.106.071v.035l.107.072v.035l.106.071v.034l.107.07v.038l.105.07v.035l.107.07v.036l.106.071v.036l.105.071v.034l.108.073v.035l.105.071v.034l.108.073v.035l.105.07v.035l.108.071v.037l.105.071v.034l.108.07v.038l.105.07v.035l.105.07v.035l.108.073v.034l.105.07v.036l.107.073v.034l.106.071v.035l.108.072v.036l.105.07v.035l.106.07v.038l.107.07v.035l.105.07v.035l.107.072v.035l.106.071v.035l.107.073v.034l.106.071v.035l.108.073v.035l.105.07v.035l.108.07v.038l.105.07v.035l.106.07v.036l.106.071v.035l.106.071v.035l.107.073v.033l.106.071v.036l.108.073v.033l.105.071v.035l.106.071v.036l.106.071v.035l.107.071v.036l.106.071v.035l.106.071v.035l.106.071v.035l.107.071v.036l.106.071v.035l.106.071v.035l.107.072v.035l.106.071v.035l.107.071v.036l.105.07v.036l.107.071v.035l.106.071v.035l.105.071v.036l.108.073v.033l.105.071v.035l.108.072v.035l.106.071v.034l.107.07v.038l.106.07v.035l.106.07v.037l.106.071v.035l.105.071v.034l.108.073v.035l.105.071v.034l.108.073v.035l.106.071v.034l.107.071v.037l.105.07v.035l.108.07v.038l.105.07v.035l.105.07v.035l.108.073v.035l.105.07v.035l.108.073v.035l.105.07v.035l.108.073v.035l.105.07v.035l.108.07v.038l.105.07v.035l.105.07v.035l.108.072v.035l.105.07v.036l.107.073v.034l.106.071v.035l.108.073v.035l.105.07v.035l.106.07v.038l.106.07v.035l.107.07v.036l.106.071v.035l.106.071v.035l.107.073v.034l.106.071v.035l.108.073v.034l.104.07v.036l.109.071v.037l.104.069v.035l.107.071v.036l.106.071v.035l.106.071v.035l.107.073v.034l.106.071v.033l.106.073v.035l.106.071v.035l.107.072v.035l.106.071v.035l.107.071v.036l.106.071v.035l.106.071v.035l.106.071v.036l.105.071v.033l.108.073v.035l.105.071v.034l.108.073v.035l.106.071v.035l.107.071v.036l.105.07v.036l.108.071v.036l.105.07v.035l.105.071v.034l.108.073v.035l.105.071v.034l.108.073v.035l.106.071v.034l.107.071v.037l.105.07v.035l.108.07v.038l.105.07V71l3 2 7.93-5.947.039.04.105.106h.001l.107.108.105.105h.001l.107.108.105.105h.001l.104.105.108.108h.001l.104.105.107.107h.001l.105.106h.001l.107.108.105.105h.001l.105.106h.002l.104.106h.001l.106.107.106.106h.001l.105.106.107.107h.001l.105.106.108.108.105.105h.001l.105.106h.002l.104.106h.001l.106.107h.001l.105.106h.001l.105.106.106.106h.001l.106.107.106.106.106.107.001-.001.106.107h.002l.104.106h.001l.106.107.105.106.002-.001.105.106.106.107h.001l.104.105h.002l.106.108h.001l.104.106h.002l.106.107h.002l.104.106h.001l.106.107h.002l.104.106h.001l.105.106.106.106h.001l.104.105h.002l.106.108.002-.001.103.106.108.108h.002l.103.105h.001l.107.108h.002l.103.105h.001l.107.108.105.105h.001l.104.105h.002l.106.108.105.105h.002l.105.107h.001l.105.106h.001l.107.108.105.105h.001l.107.108.105.105h.001l.104.105.107.108.001-.001.105.106.107.107h.001l.105.106h.001l.107.108.105.105.002-.001.106.107.105.107h.001l.105.106.106.106h.001l.105.106.107.107h.001l.105.106.108.107.104.105h.001l.106.107h.002l.104.106h.001l.106.107h.002l.104.106h.001l.105.106.107.107.104.106.002-.002.106.108h.001l.105.106h.001l.106.107h.002l.104.106h.001l.106.107h.002l.104.106h.001l.105.106.002-.001.105.107h.001l.105.105.106.108h.001l.104.105h.002l.106.108h.002l.104.106h.001l.211.213.002-.001.106.108.105.105h.001l.104.105h.002l.106.108h.001l.104.105.107.108.001-.001.105.106h.001l.107.108.105.105h.001l.107.108.105.105L79 76V51.938z"/><path d="M40.063 17L28 29l-8-6-3 1v15l3 2 8-6 11.875 12L47 44V19.938L40.063 17zM20 36v-8l5 4-5 4zm20 2l-8-6 8-6v12z" fill="#FFF"/></svg>