<svg xmlns="http://www.w3.org/2000/svg" viewBox="0 0 48 48" width="528" height="528"><path d="M41 10H25v28h16c.555 0 1-.445 1-1V11c0-.555-.445-1-1-1z" fill="#2196f3"/><path d="M25 15h14v2H25zm0 4h14v2H25zm0 4h14v2H25zm0 4h14v2H25zm0 4h14v2H25z" fill="#fff"/><path d="M27 42L6 38V10l21-4z" fill="#0d47a1"/><path d="M21.168 31.012h-2.719l-1.8-8.989a9.405 9.405 0 0 1-.176-1.574h-.032c-.043.637-.109 1.16-.195 1.574l-1.851 8.989h-2.829L8.707 16.996h2.676l1.535 9.328c.062.406.113.942.145 1.61h.042c.016-.5.098-1.051.223-1.645l1.969-9.293h2.621l1.785 9.406c.063.348.121.844.172 1.508h.031c.02-.512.07-1.031.16-1.562l1.5-9.352h2.47z" fill="#fff"/></svg>