<svg height="60" width="60" xmlns="http://www.w3.org/2000/svg"><defs><radialGradient cx="39.868%" cy="33.311%" fx="39.868%" fy="33.311%" id="a" r="65.196%"><stop offset="0%" stop-color="#0E0E17" stop-opacity=".85"/><stop offset="76.7%" stop-color="#0E0E17"/></radialGradient></defs><g fill="none"><path d="M0 30C0 13.431 13.431 0 30 0c16.569 0 30 13.431 30 30 0 16.569-13.431 30-30 30C13.431 60 0 46.569 0 30z" fill="#FF2BC2"/><path d="M3 30C3 15.088 15.088 3 30 3s27 12.088 27 27-12.088 27-27 27S3 44.912 3 30z" fill="url(#a)"/><path d="M41.222 27.694c-.305-.143-.69-.203-1.178-.203-2.56 0-4.266 1.97-4.266 5.24 0 3.738 1.747 5.24 4.022 5.24.488 0 1.016-.06 1.402-.223V27.694h.02zm-9.1 5.2c0-4.733 3.047-8.43 8.044-8.43.426 0 .65 0 1.056.04v-5.28c0-.122.101-.204.203-.204h3.27c.163 0 .203.061.203.163v18.565c0 .549 0 1.24.102 1.99 0 .143 0 .163-.122.224a12.1 12.1 0 0 1-5.2 1.178c-4.408 0-7.556-2.721-7.556-8.246zm-6.927-3.291l5.688 11.03c.101.162.04.325-.122.325h-3.534c-.224 0-.325-.061-.427-.264-1.3-2.682-2.62-5.464-3.981-8.349h-.04c-1.22 2.722-2.56 5.688-3.86 8.369-.102.162-.203.223-.366.223h-3.371c-.204 0-.224-.162-.122-.284l5.565-10.705-5.383-10.643c-.121-.163 0-.305.143-.305h3.493c.203 0 .305.04.366.223 1.28 2.702 2.58 5.363 3.798 8.085h.041c1.178-2.681 2.478-5.383 3.717-8.044.102-.162.163-.264.366-.264h3.27c.163 0 .224.122.122.305l-5.363 10.298z" fill="#FED7F0"/></g></svg>