<svg xmlns="http://www.w3.org/2000/svg" viewBox="0 0 511.863 511.863"><path d="M117.695 474.627h220.542c98.257-40.225 112.305-139.273 113.105-232.671.047-5.167-4.171-9.365-9.337-9.365H13.927c-5.167 0-9.384 4.198-9.337 9.365.801 93.398 14.848 192.447 113.105 232.671zm110.269-307.064a9.263 9.263 0 0 1-6.628-2.783c-14.373-14.587-21.532-29.752-21.29-45.093.233-14.922 7.466-29.268 21.495-42.645 10.491-9.765 15.835-19.745 15.946-29.715.13-10.296-5.26-20.843-16.03-31.353-3.677-3.603-3.742-9.495-.149-13.163 3.593-3.696 9.495-3.742 13.163-.168 14.541 14.215 21.821 29.324 21.634 44.907-.177 15.267-7.512 29.752-21.802 43.036-10.203 9.728-15.49 19.651-15.649 29.407-.158 10.147 5.204 20.824 15.937 31.735 3.612 3.658 3.565 9.551-.093 13.163a9.322 9.322 0 0 1-6.534 2.672m102.182 0a9.263 9.263 0 0 1-6.628-2.783c-14.373-14.587-21.532-29.752-21.29-45.093.233-14.922 7.466-29.268 21.495-42.645 10.566-9.83 15.937-19.856 16.058-29.882.121-10.259-5.232-20.75-15.919-31.185-3.677-3.603-3.752-9.495-.158-13.163 3.593-3.696 9.495-3.742 13.163-.168 14.476 14.141 21.718 29.193 21.532 44.749-.177 15.295-7.55 29.836-21.914 43.194-10.203 9.728-15.49 19.651-15.649 29.407-.158 10.147 5.204 20.824 15.937 31.735 3.612 3.658 3.565 9.551-.093 13.163a9.326 9.326 0 0 1-6.534 2.671m-195.491 0a9.263 9.263 0 0 1-6.628-2.783c-14.373-14.587-21.532-29.752-21.29-45.093.233-14.922 7.466-29.268 21.495-42.645 10.566-9.83 15.937-19.856 16.058-29.882.121-10.259-5.232-20.75-15.919-31.185-3.677-3.603-3.752-9.495-.158-13.163 3.593-3.696 9.495-3.742 13.163-.168 14.476 14.141 21.718 29.193 21.532 44.749-.177 15.295-7.55 29.836-21.914 43.194-10.203 9.728-15.49 19.651-15.649 29.407-.158 10.147 5.204 20.824 15.937 31.735 3.612 3.658 3.565 9.551-.093 13.163a9.326 9.326 0 0 1-6.534 2.671" fill="#ccd0d2"/><path d="M172.118 456.009a10.03 10.03 0 0 1-1.564-.13c-73.877-12.53-113.552-55.045-128.624-137.84-.912-5.055 2.43-9.905 7.494-10.817 5.101-.977 9.905 2.43 10.826 7.485 13.638 74.91 47.56 111.635 113.422 122.815 5.064.856 8.471 5.669 7.615 10.733a9.314 9.314 0 0 1-9.169 7.754" fill="#a1abaf"/><g fill="#cc4b4c"><path d="M358.254 297.754a9.306 9.306 0 0 1-9.309-9.309v-55.668c0-5.148 4.171-9.309 9.309-9.309s9.309 4.161 9.309 9.309v55.668c.001 5.148-4.17 9.309-9.309 9.309"/><path d="M386.102 363.29h-55.855v-74.472l28.011-18.805 27.918 18.805z"/></g><path d="M451.209 251.263c-1.117 59.587-8.574 120.562-40.522 166.428 54.561-7.391 96.591-53.965 96.591-110.573v-23.943c0-17.622-14.289-31.912-31.912-31.912h-24.157zm-306.986 260.6H23.204c-10.287 0-18.618-8.332-18.618-18.618 0-10.287 8.332-18.618 18.618-18.618h390.982c10.287 0 18.618 8.332 18.618 18.618 0 10.287-8.332 18.618-18.618 18.618H302.477l-27.927-9.309h-102.4l-27.927 9.309z" fill="#a1abaf"/></svg>