<svg xmlns="http://www.w3.org/2000/svg" viewBox="0 0 512.003 512.003"><circle cx="256.001" cy="256" r="256" fill="#ff8e31"/><path d="M503.617 321.116l-174.548-174.53-13.757-13.798-13.801-13.801H182.929v109.609l51.459 51.461 3.351 3.351H164.66l-7.304-7.306-14.61 14.612 8.161 8.161-.858 40.113 15.946 15.946-52.48 38.088 117.768 117.773a258.462 258.462 0 0 0 24.714 1.208c118.886-.003 218.818-81.042 247.62-190.887z" fill="#ed7425"/><path fill="#0575a5" d="M182.929 118.986v109.617h146.147v-82.038l-27.586-27.579z"/><path fill="#025e90" d="M301.49 146.565l27.586 27.579v-27.579l-13.793-13.788z"/><path d="M329.076 146.565H301.49v-27.579zm-125.529 1.001h52.452v4.201h-52.452zm0 16.087h104.901v4.201H203.547zm0 16.085h104.901v4.196H203.547zm0 16.102h104.901v4.193H203.547zm15.923 142.362h73.075v54.812H219.47zm-105.958 0h73.07v54.812h-73.07zm211.916 0h73.075v54.812h-73.075z" fill="#fff"/><g fill="#34495e"><path d="M252.648 228.608h6.728v109.601h-6.728zm-105.959 51.149h6.728v58.445h-6.728zm211.892 0h6.735v58.445h-6.735z"/><path d="M146.382 280.038h219.213v6.73H146.382z"/></g><path d="M248.68 276.096h14.623v14.615H248.68zm-105.946 0h14.615v14.615h-14.615zm211.904 0h14.623v14.615h-14.623z" fill="#283a4d"/></svg>