<svg height="512" width="512" xmlns="http://www.w3.org/2000/svg"><path fill="#3E4041" d="M0 512h512V0H0v512"/><path fill="#010101" opacity=".102" d="M327 160l-147 2-22 104 126 246h228v-77L327 160"/><path d="M295.802 226.195c-.075.348-.166.789-.227 1.081l-2.63 12.306 2.767-12.965.09-.422m-78.782 8.236l-1.452 5.142 1.452-5.14v-.002" fill="#5DA3C2"/><path d="M324.188 125c3.903 8.864 6.431 23.582 2.657 34.362 15.429 13.17 20.733 45.195 13.285 71.363 21.987 1.68 48.18-.804 65.086 5.943-15.805-2.031-37.391-6.018-57.774-4.63-3.863.262-9.585-.147-9.304 5.286 23.597 1.854 47.045 3.871 66.42 9.916-19.214-3.14-42.542-7.917-66.42-8.586-9.864 19.465-29.716 29.029-57.119 31.045 2.945 6.409 8.587 8.85 9.969 19.162 2.052 15.403-3.219 37.965 1.981 48.231 2.495 4.918 6.56 5.051 9.304 9.255-6.713 7.944-23.351-.889-25.246-9.255-3.246-14.327 4.945-36.539-3.982-46.25.632 15.625-3.692 37.574.666 51.535 1.72 5.491 6.677 7.608 5.316 12.559-31.196 3.168-18.164-40.378-23.259-66.075-4.705.333-2.64 7.048-2.652 9.912-.138 25.1 5.135 59.521-21.917 56.163-.795-5.272 3.629-7.067 5.31-11.887 4.938-14.122-.924-35.163 1.341-52.207-10.326 7.784 1.082 34.96-5.315 48.891-3.688 8.02-15.564 11.509-24.575 7.93 1.172-5.973 7.342-5.007 9.955-10.57 3.654-7.758.026-18.927 1.336-30.392-19.116 3.813-33.938-.553-41.189-12.557-3.244-5.388-4.052-11.742-7.975-16.516-3.901-4.777-10.138-5.418-11.948-11.888 23.669-5.695 24.575 24.356 45.835 25.102 6.515.235 9.902-1.883 15.936-3.298 1.686-7.581 5.303-13.23 10.625-17.189-26.446-3.621-48.29-11.855-58.448-31.701-24.047 1.184-46.048 4.395-66.427 9.242 18.496-6.719 41.312-9.127 65.763-9.916-1.44-8.66-14.072-6.278-21.917-5.942-14.573.642-32.92 2.454-44.504 4.63 16.796-5.989 40.355-5.24 63.105-5.287-6.959-21.815-4.548-56.471 10.626-69.378-4.3-10.836-2.965-28.563 2.657-37.004 16.94.761 27.215 8.149 37.86 15.202 13.198-3.756 27.077-5.623 45.162-4.629 7.609.423 15.52 3.84 21.246 3.299 5.623-.525 11.819-6.833 17.272-9.243 7.114-3.137 13.128-4.335 21.258-4.628" fill="#FFF"/></svg>