<svg height="512" width="512" xmlns="http://www.w3.org/2000/svg"><path fill="#FBAB18" d="M0 512h512V0H0v512"/><path fill="#010101" opacity=".05" d="M407 236l-270-4-29 35 145 245h259V361L407 236"/><path d="M295.802 226.195c-.075.348-.166.789-.227 1.081l-2.63 12.306 2.767-12.965.09-.422m-78.782 8.236l-1.452 5.142 1.452-5.14v-.002" fill="#5DA3C2"/><path d="M137.243 250.19v-18.283h36.564v31.726c-6.945 5.198-13.089 8.738-18.434 10.62-5.344 1.881-11.678 2.822-19.004 2.822-9.029 0-16.387-1.557-22.07-4.672-5.687-3.114-10.095-7.751-13.225-13.912-3.131-6.162-4.696-13.229-4.696-21.206 0-8.401 1.71-15.708 5.133-21.919s8.433-10.925 15.031-14.141c5.154-2.487 12.082-3.729 20.786-3.729 8.401 0 14.683.789 18.844 2.37 4.163 1.578 7.619 4.031 10.368 7.357 2.75 3.328 4.815 7.546 6.192 12.654l-23.658 3.427c-.896-2.43-2.417-4.293-4.563-5.586-2.146-1.294-4.88-1.941-8.208-1.941-4.95 0-8.9 1.7-11.847 5.101-2.945 3.399-4.419 8.779-4.419 16.138 0 7.82 1.548 13.405 4.647 16.754 3.096 3.349 7.418 5.023 12.962 5.023 2.622 0 5.128-.269 7.521-.806 2.391-.538 5.128-1.451 8.208-2.74v-5.057h-16.132m49.468-30.112h20.029v9.612c1.938-4.066 3.937-6.863 5.999-8.394 2.062-1.528 4.609-2.293 7.646-2.293 3.17 0 6.644.946 10.418 2.839l-6.67 15.914c-2.544-1.031-4.555-1.546-6.033-1.546-2.813 0-4.996 1.136-6.554 3.41-2.217 3.204-3.327 9.198-3.327 17.979V276h-21.508v-55.922M295.864 276h-20.08v-9.444c-2.979 3.799-5.984 6.5-9.014 8.108-3.031 1.608-6.759 2.411-11.185 2.411-5.88 0-10.495-1.758-13.844-5.277-3.35-3.517-5.025-8.932-5.025-16.247v-35.473h21.508v30.263c0 3.451.646 5.901 1.941 7.352 1.294 1.452 3.115 2.178 5.469 2.178 2.555 0 4.646-.968 6.275-2.9 1.631-1.931 2.445-5.402 2.445-10.408V220.08h21.508V276m12.908-55.922h20.03v9.461c2.979-3.774 5.992-6.476 9.039-8.099 3.048-1.624 6.767-2.437 11.157-2.437 5.915 0 10.547 1.759 13.896 5.276 3.351 3.517 5.025 8.95 5.025 16.298V276h-21.508v-30.296c0-3.462-.648-5.91-1.94-7.342-1.296-1.436-3.117-2.151-5.47-2.151-2.588 0-4.689.968-6.301 2.906-1.615 1.938-2.421 5.411-2.421 10.418V276H308.77v-55.922m97.863-21.508v21.508h11.828v16.133h-11.828v20.23c0 2.431.234 4.039.704 4.823.718 1.22 1.979 1.83 3.78 1.83 1.625 0 3.894-.465 6.805-1.395l1.614 13.779c-5.354 1.063-10.356 1.596-15.005 1.596-5.388 0-9.36-.673-11.914-2.017-2.555-1.344-4.441-3.391-5.663-6.141-1.221-2.75-1.832-7.195-1.832-13.333v-19.374h-7.525v-16.133h7.525v-10.383l21.511-11.123" fill="#FFF"/></svg>