<svg xmlns="http://www.w3.org/2000/svg" viewBox="0 0 505 505"><circle cx="252.5" cy="252.5" r="252.5" fill="#90dfaa"/><path d="M379.9 430.1H125.1c-2.6 0-4.7-2.1-4.7-4.7V102.5c0-2.6 2.1-4.7 4.7-4.7H380c2.6 0 4.7 2.1 4.7 4.7v323c-.1 2.5-2.2 4.6-4.8 4.6z" fill="#324a5e"/><path fill="#fff" d="M146.4 116.8v262.8h175.2v-36.9h37V116.8z"/><path fill="#e6e9ee" d="M321.6 379.6l37-36.9h-37z"/><path d="M273.3 87.2v-7.3c0-11.5-9.3-20.8-20.8-20.8s-20.8 9.3-20.8 20.8v7.3H195v42.6h115.1V87.2h-36.8z" fill="#ff7058"/><circle cx="252.5" cy="79.9" r="10.4" fill="#90dfaa"/><path d="M295.1 309.1H176.6V190.6h118.5v118.5zm-106.8-11.6h95.2v-95.2h-95.2v95.2z" fill="#e6e9ee"/><path fill="#54c0eb" d="M243.9 285.4l-43.6-43.6 20.6-20.6 23 23 63.9-63.8 20.6 20.6z"/></svg>