<svg xmlns="http://www.w3.org/2000/svg" viewBox="0 0 57 57"><path d="M44.636 52H9.364A8.364 8.364 0 0 1 1 43.636V8.364A8.364 8.364 0 0 1 9.364 0h35.272A8.364 8.364 0 0 1 53 8.364v35.272A8.364 8.364 0 0 1 44.636 52z" fill="#3abca7"/><path d="M45 14H27a1 1 0 1 1 0-2h18a1 1 0 1 1 0 2zm0 14H27a1 1 0 1 1 0-2h18a1 1 0 1 1 0 2zm0 14H27a1 1 0 1 1 0-2h18a1 1 0 1 1 0 2zM13.07 17a.992.992 0 0 1-.599-.2L7.9 13.371a.998.998 0 1 1 1.199-1.599l3.822 2.866L19.17 7.35a.998.998 0 0 1 1.409-.108c.42.359.469.99.108 1.409l-6.857 8a.995.995 0 0 1-.76.349zm0 14a.992.992 0 0 1-.599-.2L7.9 27.371a.998.998 0 1 1 1.199-1.599l3.822 2.866 6.248-7.288a.998.998 0 0 1 1.409-.108c.42.359.469.99.108 1.409l-6.857 8a.991.991 0 0 1-.759.349zm0 14.999a.992.992 0 0 1-.599-.2L7.9 42.37a.998.998 0 1 1 1.199-1.599l3.822 2.866 6.248-7.287a.998.998 0 0 1 1.409-.108c.42.359.469.99.108 1.409l-6.857 7.999a.991.991 0 0 1-.759.349z" fill="#fff"/><path d="M56 43.846l-1.444-.278c-2.143-.412-3.125-2.916-1.835-4.675l.907-1.236-1.958-1.958-1.217.825c-1.806 1.224-4.272.148-4.604-2.008L45.615 33h-2.769l-.359 1.865c-.403 2.096-2.818 3.096-4.585 1.899l-1.572-1.065-1.958 1.958.907 1.236c1.29 1.76.308 4.263-1.835 4.675L32 43.846v2.769l1.515.233c2.157.332 3.232 2.797 2.008 4.604l-.825 1.217 1.958 1.958 1.236-.907c1.76-1.29 4.263-.308 4.675 1.835L42.846 57h2.769l.164-1.066c.339-2.204 2.896-3.263 4.694-1.944l.869.638L53.3 52.67l-.825-1.217c-1.224-1.806-.148-4.272 2.008-4.604L56 46.615v-2.769z" fill="#556080"/><circle cx="44" cy="45" r="4" fill="#fff"/><path d="M44 50c-2.757 0-5-2.243-5-5s2.243-5 5-5 5 2.243 5 5-2.243 5-5 5zm0-8c-1.654 0-3 1.346-3 3s1.346 3 3 3 3-1.346 3-3-1.346-3-3-3z" fill="#ecf0f1"/></svg>