<svg xmlns="http://www.w3.org/2000/svg" viewBox="0 0 508 508"><circle cx="254" cy="254" r="254" fill="#fd8469"/><path fill="#ffd05b" d="M108.4 332H158v61.2h-49.6z"/><path fill="#fff" d="M188.8 306.8h49.6v86.4h-49.6z"/><path fill="#4cdbc4" d="M269.6 242.8h49.6v150.4h-49.6z"/><path fill="#ffd05b" d="M350 184.8h49.6v208.4H350z"/><g fill="#324a5e"><path d="M293.6 122.8c-4.4-4.8-12-4.8-16.8-.4l-26.8 26-34-30.8s-.4 0-.4-.4c-.4-.4-.8-.8-1.6-1.2-.4 0-.4-.4-.8-.4-.8-.4-1.6-.8-2.4-.8h-.8c-.8 0-1.2-.4-2-.4h-1.6l-57.6 8.8c-3.6.4-6.8 2.8-8.8 6l-15.2 27.6c-3.2 5.6-1.2 13.2 4.8 16 2 .8 3.6 1.6 5.6 1.6 4.4 0 8.4-2.4 10.4-6L158 146l33.6-5.2-16 58.4-14.4 46.4-36 32.4c-4.8 4.4-5.2 12-.8 16.8 2.4 2.8 5.6 4 8.8 4 2.8 0 5.6-1.2 8-3.2l38.8-34.8c1.6-1.6 2.8-3.2 3.2-5.2l11.6-37.6 30 11.6-17.2 42.8c-2.4 6 .4 13.2 6.4 15.6 1.6.4 2.8.8 4.4.8 4.8 0 9.2-2.8 11.2-7.6l21.6-54c1.2-2.8 1.2-6.4 0-9.2s-3.6-5.2-6.4-6.4L202 194.8l12.8-47.2 28 25.2c4.8 4.4 11.6 4 16.4-.4l34.8-33.6c4.4-3.6 4.4-11.2-.4-16z"/><circle cx="221.6" cy="78.8" r="27.2"/></g></svg>