<svg xmlns="http://www.w3.org/2000/svg" viewBox="0 0 504.124 504.124"><path d="M23.631 0h456.862c12.997 0 23.631 10.634 23.631 23.631v456.862c0 12.997-10.634 23.631-23.631 23.631H23.631C10.634 504.123 0 493.489 0 480.492V23.631C0 10.634 10.634 0 23.631 0z" fill="#efefef"/><path d="M47.262 94.523h409.6c8.665 0 15.754 7.089 15.754 15.754v346.585c0 8.665-7.089 15.754-15.754 15.754h-409.6c-8.665 0-15.754-7.089-15.754-15.754V110.277c0-8.665 7.089-15.754 15.754-15.754z" fill="#2b414d"/><path d="M110.277 165.415h228.431c4.332 0 7.877 3.545 7.877 7.877v7.877c0 4.332-3.545 7.877-7.877 7.877H110.277c-4.332 0-7.877-3.545-7.877-7.877v-7.877c0-4.332 3.545-7.877 7.877-7.877z" fill="#e4e7e7"/><path d="M204.8 220.554h-94.523c-4.332 0-7.877 3.545-7.877 7.877v7.877c0 4.332 3.545 7.877 7.877 7.877H204.8c4.332 0 7.877-3.545 7.877-7.877v-7.877c0-4.333-3.545-7.877-7.877-7.877zm-23.631 110.277h-70.892c-4.332 0-7.877 3.545-7.877 7.877v7.877c0 4.332 3.545 7.877 7.877 7.877h70.892c4.332 0 7.877-3.545 7.877-7.877v-7.877c0-4.333-3.544-7.877-7.877-7.877zm212.677 0h-47.262c-4.332 0-7.877 3.545-7.877 7.877v7.877c0 4.332 3.545 7.877 7.877 7.877h47.262c4.332 0 7.877-3.545 7.877-7.877v-7.877c0-4.333-3.545-7.877-7.877-7.877z" fill="#e35e53"/><path d="M393.846 220.554H252.062c-4.332 0-7.877 3.545-7.877 7.877v7.877c0 4.332 3.545 7.877 7.877 7.877h141.785c4.332 0 7.877-3.545 7.877-7.877v-7.877c-.001-4.333-3.546-7.877-7.878-7.877zm0 165.415H110.277c-4.332 0-7.877 3.545-7.877 7.877v7.877c0 4.332 3.545 7.877 7.877 7.877h283.569c4.332 0 7.877-3.545 7.877-7.877v-7.877c0-4.332-3.545-7.877-7.877-7.877z" fill="#26a6d1"/><path d="M299.323 275.692H110.277c-4.332 0-7.877 3.545-7.877 7.877v7.877c0 4.332 3.545 7.877 7.877 7.877h189.046c4.332 0 7.877-3.545 7.877-7.877v-7.877c0-4.332-3.545-7.877-7.877-7.877zm0 55.139h-70.892c-4.332 0-7.877 3.545-7.877 7.877v7.877c0 4.332 3.545 7.877 7.877 7.877h70.892c4.332 0 7.877-3.545 7.877-7.877v-7.877c0-4.333-3.545-7.877-7.877-7.877z" fill="#49b8a4"/><path d="M47.262 31.508c-8.665 0-15.754 7.089-15.754 15.754s7.089 15.754 15.754 15.754 15.754-7.089 15.754-15.754-7.09-15.754-15.754-15.754zm47.261 0c-8.665 0-15.754 7.089-15.754 15.754s7.089 15.754 15.754 15.754 15.754-7.089 15.754-15.754-7.089-15.754-15.754-15.754zm47.262 0c-8.665 0-15.754 7.089-15.754 15.754s7.089 15.754 15.754 15.754 15.754-7.089 15.754-15.754-7.09-15.754-15.754-15.754z" fill="#bfc3c5"/></svg>