<svg height="500" width="500" xmlns="http://www.w3.org/2000/svg"><path d="M0 0v500h500V0z" fill="#4b4b4b"/><path d="M100.031 87.5C79.33 87.5 75 104.36 75 125.063v38.093c-15.527 20.8-25 46.416-25 74.344v50c0 69.04 55.96 125 125 125h150c69.04 0 125-55.96 125-125v-50c0-27.928-9.473-53.544-25-74.344v-38.094c0-20.702-4.33-37.562-25.031-37.562-17.48 0-40.036 12.196-46.969 28.406-9.032-2.099-18.332-3.406-28-3.406H175c-9.668 0-18.967 1.306-28 3.406-6.933-16.21-29.49-28.406-46.969-28.406zM175 237.5h150c41.404 0 74.969 33.596 74.969 75s-33.565 75-74.969 75H175c-41.404 0-74.969-33.596-74.969-75s33.565-75 74.969-75zm0 24.969c-20.702 0-25 16.891-25 37.594v13.25c0 20.702 4.298 37.562 25 37.562 20.702 0 25.031-16.86 25.031-37.563v-13.25c0-20.702-4.329-37.593-25.031-37.593zm150 0c-20.702 0-25.031 16.891-25.031 37.594v13.25c0 20.702 4.329 37.562 25.031 37.562 20.702 0 25-16.86 25-37.563v-13.25c0-20.702-4.298-37.593-25-37.593z" fill="#fff"/><path d="M416.438 93.313l-.032.03c6.796 6.672 8.594 18.397 8.594 31.72v38.093c15.527 20.8 25 46.416 25 74.344v50c0 69.04-55.96 125-125 125H175c-33.441 0-63.82-13.114-86.25-34.5l122 122H500V176.906l-83.563-83.594z" opacity=".3"/><path d="M175 237.5c-41.404 0-74.969 33.596-74.969 75s33.565 75 74.969 75h150c41.404 0 74.969-33.596 74.969-75s-33.565-75-74.969-75H175zm0 24.969c20.702 0 25.031 16.891 25.031 37.594v13.25c0 20.702-4.329 37.562-25.031 37.562-20.702 0-25-16.86-25-37.563v-13.25c0-20.702 4.298-37.593 25-37.593zm150 0c20.702 0 25 16.891 25 37.594v13.25c0 20.702-4.298 37.562-25 37.562-20.702 0-25.031-16.86-25.031-37.563v-13.25c0-20.702 4.329-37.593 25.031-37.593z" opacity=".3"/></svg>