<svg height="64" version="1" width="64" xmlns="http://www.w3.org/2000/svg"><path d="M64 1a1 1 0 0 0-1-1H1a1 1 0 0 0-1 1v31h64V1z" fill="#08A9D9"/><path d="M64 63V32H0v31a1 1 0 0 0 1 1h62a1 1 0 0 0 1-1z" fill="#089BCD"/><g fill="#F5F5F5"><path d="M17 25h6v21h-6z"/><circle cx="20" cy="20" r="3"/><path d="M29 25h6v21h-6z"/><path d="M34 29s4-4 9-4c6.875 0 7 4 7 7v14h-7V35c0-6-9-5-9 0v-6z"/></g><path d="M17 32h6v14h-6zm26 3v11h7V32h-8.161c.7.674 1.161 1.654 1.161 3zM29 46h6V32.458c.15-.165.316-.317.492-.458H29v14z" fill="#E1E1E1"/></svg>