<svg id="Layer_1" viewBox="0 0 512 512" xmlns="http://www.w3.org/2000/svg"><style>.st0{fill:#d00027}.st1{fill:#fff}</style><path class="st0" d="M0 106.7h512v298.7H0z"/><path class="st1" d="M149.3 181.3c41.2 0 74.7 33.4 74.7 74.7 0 41.2-33.4 74.7-74.7 74.7-41.2 0-74.7-33.4-74.7-74.7.1-41.2 33.5-74.7 74.7-74.7"/><path class="st0" d="M168 196.3c33 0 59.7 26.8 59.7 59.7 0 33-26.7 59.7-59.7 59.7s-59.7-26.8-59.7-59.7c0-33 26.7-59.7 59.7-59.7"/><path class="st1" d="M212.4 256l35.5 11.5 5.8-17.7z"/><path class="st1" d="M212.4 256l35.5-11.5 5.8 17.7z"/><path class="st1" d="M238.2 220.5v37.3h18.7z"/><path class="st1" d="M238.2 220.5l22 30.2-15.1 11z"/><path class="st1" d="M238.2 291.5l22-30.2-15.1-11z"/><path class="st1" d="M238.2 291.5v-37.3h18.7z"/><path class="st1" d="M280 234.1l-35.5 11.5 5.7 17.7z"/><path class="st1" d="M280 234.1l-22 30.2-15.1-11z"/><path class="st1" d="M280 277.9l-22-30.2-15.1 11z"/><path class="st1" d="M280 277.9l-35.5-11.5 5.7-17.7z"/></svg>