<svg id="Layer_1" viewBox="0 0 512 512" xmlns="http://www.w3.org/2000/svg"><style>.st3{fill:#fff}</style><g id="XMLID_1_"><path id="XMLID_7_" fill="#4490c3" d="M0 106.7h512v298.7H0z"/><path id="XMLID_6_" fill="#d61e42" d="M0 206.2h512v99.6H0z"/><path id="XMLID_5_" fill="#49ae68" d="M0 305.8h512v99.6H0z"/><path class="st3" d="M266.1 290.9c-19.2 0-34.8-15.6-34.8-34.9 0-19.2 15.6-34.8 34.8-34.8 7 0 13.5 2.1 18.9 5.6-7.6-7.7-18.2-12.6-29.9-12.6-23.1 0-41.8 18.7-41.8 41.8 0 23.1 18.7 41.8 41.8 41.8 11.7 0 22.3-4.8 29.9-12.6-5.4 3.6-11.9 5.7-18.9 5.7" id="XMLID_4_"/><path class="st3" id="XMLID_3_" d="M313.3 271.9l-11.4-5.2-4.5 11.7-4.4-11.7-11.4 5.1 5.2-11.4-11.7-4.4 11.7-4.4-5.2-11.5 11.5 5.2 4.4-11.7 4.4 11.8 11.4-5.2-5.2 11.4 11.8 4.4-11.8 4.4z"/></g></svg>