<svg id="Layer_1" viewBox="0 0 128 128" xmlns="http://www.w3.org/2000/svg"><style>.st1{fill:#fff}.st2{fill:none;stroke:#242c88;stroke-width:2;stroke-linecap:round;stroke-linejoin:round;stroke-miterlimit:10}.st16{opacity:.2;fill:#242c88}</style><path d="M90.3 78H36.7L23 85.4V78h-9.3c-2.1 0-3.7-1.7-3.7-3.7V17.7c0-2.1 1.7-3.7 3.7-3.7h76.6c2.1 0 3.7 1.7 3.7 3.7v56.6c0 2-1.7 3.7-3.7 3.7z" fill="#589fff"/><path class="st2" d="M26.8 31H78M26.8 50.3H78M26.8 60h25.6M26.8 40.7H78M90.3 78H36.7L23 85.4V78h-9.3c-2.1 0-3.7-1.7-3.7-3.7V17.7c0-2.1 1.7-3.7 3.7-3.7h76.6c2.1 0 3.7 1.7 3.7 3.7v56.6c0 2-1.7 3.7-3.7 3.7z"/><path d="M37.7 40c-4.8 0-8.7 3.9-8.7 8.7v33.5l7.7-4.2h53.6c2.1 0 3.7-1.7 3.7-3.7V40H37.7z" opacity=".3" fill="#242c88"/><path class="st1" d="M37.7 109h53.6l13.7 7.4V109h9.3c2.1 0 3.7-1.7 3.7-3.7V48.7c0-2.1-1.7-3.7-3.7-3.7H37.7c-2.1 0-3.7 1.7-3.7 3.7v56.6c0 2 1.7 3.7 3.7 3.7z"/><path class="st2" d="M37.7 109h53.6l13.7 7.4V109h9.3c2.1 0 3.7-1.7 3.7-3.7V48.7c0-2.1-1.7-3.7-3.7-3.7H37.7c-2.1 0-3.7 1.7-3.7 3.7v56.6c0 2 1.7 3.7 3.7 3.7z"/><path class="st16" d="M93 45v33.2l9.5 19.6 9.5-19.6V45z"/><path class="st1" d="M106 40v37.6l-9.5 19.6L87 77.6V40z"/><path transform="rotate(-90 96.5 59)" fill="#ffc408" d="M77.5 49.5h38v19h-38z"/><path class="st16" d="M100 40h6v38h-6z"/><path fill="#5e61a3" d="M91.7 89l4 8.3 4-8.3z"/><path class="st2" d="M106 40v37.6l-9.5 19.6L87 77.6V40z"/><path d="M106 40v-8.6c0-2.4-2-4.4-4.4-4.4H91.4C89 27 87 29 87 31.4V40h19z" fill="#f3877e"/><path class="st2" d="M106 40v-8.6c0-2.4-2-4.4-4.4-4.4H91.4C89 27 87 29 87 31.4V40h19zm-6 22V41m0 37v-9"/><path class="st1" transform="rotate(-90 96.5 41)" d="M92.5 31.5h8v19h-8z"/><path class="st16" transform="rotate(-90 96.5 41)" d="M92.5 31.5h8v19h-8z"/><path class="st2" transform="rotate(-90 96.5 41)" d="M92.5 31.5h8v19h-8z"/><path d="M49.1 88.7l3.5-2.9c.3-.2.6 0 .6.4v2.6c0 .4.3.6.6.4l4.6-3.8c.3-.2.6 0 .6.4v2.9s.2.6.5.4l4.4-3.6c.3-.2.1.4.1.4v3c0 .4.3.6.6.4l4.6-3.8c.3-.2.6 0 .6.4v2.7c0 .4.3.6.6.4l3.8-3.1c.3-.2.6 0 .6.4v2.5c0 .4.3.6.6.4l3.7-3M49.8 59H78M49.8 71H78m-28.2 6h14.1M49.8 65H78" fill="none" stroke="#242c88" stroke-width="2" stroke-linecap="round" stroke-linejoin="round" stroke-miterlimit="10" opacity=".2"/></svg>