<svg xmlns="http://www.w3.org/2000/svg" viewBox="0 0 512.002 512.002"><path d="M95.991 103.499l90.02-7.872L33.463 82.278 0 464.816l128.585 11.254zm90.018 377.592l196.525 17.197 3.036-34.66z" fill="#c4bfad"/><path d="M478.53 70.032l-70.373 6.153c-6.702 16.942-23.131 28.955-42.441 28.955-16.466 0-30.775-8.777-38.83-21.842L95.993 103.504l33.463 382.537 382.546-33.472L478.53 70.032z" fill="#ece8d8"/><path d="M394.738 215.945c.265 0 .539-.009.805-.037l27.319-2.395c5.038-.43 8.75-4.873 8.311-9.902-.439-5.019-4.901-8.795-9.902-8.311l-27.319 2.395a9.135 9.135 0 0 0-8.311 9.902c.421 4.755 4.407 8.348 9.097 8.348m-100.187 8.768c.265 0 .539-.009.805-.037l63.753-5.577c5.029-.439 8.75-4.873 8.311-9.902-.448-5.029-4.901-8.759-9.902-8.311l-63.753 5.577a9.135 9.135 0 0 0-8.311 9.902c.42 4.755 4.407 8.348 9.097 8.348m-117.607 10.322l81.975-7.168a9.135 9.135 0 0 0 8.311-9.902c-.439-5.029-4.974-8.768-9.902-8.311l-81.975 7.168a9.135 9.135 0 0 0-8.311 9.902c.421 4.754 4.407 8.347 9.097 8.347.265 0 .539-.009.805-.036m185.357 20.5a9.135 9.135 0 0 0-8.311 9.902 9.143 9.143 0 0 0 9.097 8.347c.265 0 .539-.009.805-.037l63.753-5.577c5.038-.439 8.75-4.873 8.32-9.902-.448-5.029-4.901-8.768-9.902-8.311l-63.762 5.578zm-53.054 22.991a9.135 9.135 0 0 0 8.311-9.902c-.448-5.029-4.928-8.805-9.902-8.311l-63.753 5.577c-5.038.439-8.75 4.873-8.32 9.902a9.15 9.15 0 0 0 9.097 8.347c.274 0 .539-.009.805-.037l63.762-5.576zM181.73 289.687l27.319-2.395a9.135 9.135 0 0 0 8.311-9.902c-.43-5.029-4.827-8.731-9.902-8.311l-27.319 2.395a9.135 9.135 0 0 0-8.311 9.902c.421 4.754 4.407 8.347 9.097 8.347.265 0 .54-.009.805-.036m230.884 16.508a9.132 9.132 0 0 0-8.302 9.911 9.143 9.143 0 0 0 9.911 8.301l18.213-1.6c5.029-.43 8.75-4.873 8.302-9.911-.448-5.01-4.709-8.731-9.911-8.302l-18.213 1.601zm-127.51 11.153a9.135 9.135 0 0 0-8.311 9.902c.411 4.763 4.407 8.347 9.097 8.347.265 0 .539-.009.805-.037l91.09-7.963c5.038-.439 8.75-4.873 8.311-9.902s-4.91-8.731-9.902-8.311l-91.09 7.964zm-54.643 4.785l-45.541 3.986c-5.038.43-8.75 4.873-8.32 9.902.411 4.754 4.416 8.347 9.097 8.347.274 0 .539-.009.805-.037l45.55-3.986a9.135 9.135 0 0 0 8.311-9.902c-.43-5.028-4.864-8.767-9.902-8.31m205.161 37.116l-91.081 7.973a9.135 9.135 0 0 0-8.311 9.902 9.143 9.143 0 0 0 9.097 8.347c.265 0 .539-.009.805-.037l91.081-7.973a9.135 9.135 0 0 0 8.311-9.902c-.448-5.027-4.873-8.794-9.902-8.31m-145.732 12.75l-36.425 3.191c-5.038.43-8.75 4.873-8.32 9.902.421 4.754 4.416 8.347 9.106 8.347.265 0 .53-.009.795-.037l36.434-3.191c5.038-.439 8.75-4.873 8.311-9.902s-4.827-8.749-9.901-8.31m-72.866 6.375l-27.319 2.395a9.135 9.135 0 0 0-8.311 9.902c.411 4.754 4.407 8.347 9.097 8.347.265 0 .53-.009.805-.037l27.319-2.395a9.135 9.135 0 0 0 8.311-9.902c-.439-5.027-4.974-8.758-9.902-8.31" fill="#c9b693"/><path d="M283.426 150.856a9.117 9.117 0 0 1-6.464-2.679 9.132 9.132 0 0 1 0-12.928l49.966-49.966c3.566-3.566 9.353-3.566 12.928 0 3.566 3.575 3.566 9.362 0 12.928l-49.966 49.966a9.119 9.119 0 0 1-6.464 2.679" fill="#b8bdc1"/><path d="M411.426 59.428c0-25.243-20.471-45.714-45.714-45.714s-45.714 20.471-45.714 45.714 20.471 45.714 45.714 45.714 45.714-20.471 45.714-45.714" fill="#e02b22"/></svg>