<svg xmlns="http://www.w3.org/2000/svg" viewBox="0 0 59 59"><path d="M30.22 5L1.241 34.218a2.53 2.53 0 0 0 0 3.576L21.707 58.26a2.53 2.53 0 0 0 3.576 0L53.5 29.28V5H30.22zM43.5 19a4 4 0 1 1 0-8 4 4 0 0 1 0 8z" fill="#e8d5b2"/><path d="M43.5 16a.999.999 0 0 1-.707-1.707l14-14a.999.999 0 1 1 1.414 1.414l-14 14A.997.997 0 0 1 43.5 16z" fill="#d75a4a"/><path d="M42.247 31.281L31.641 41.888a.999.999 0 1 0 1.414 1.414l10.606-10.606a1 1 0 1 0-1.414-1.415zm4.942-3.541c-.37-.37-1.029-.37-1.409 0a1.012 1.012 0 0 0 0 1.42c.189.189.449.29.71.29.26 0 .52-.101.699-.29a.985.985 0 0 0 0-1.42zm-9.892-8.48a.999.999 0 1 0-1.414-1.414L25.276 28.453a.999.999 0 1 0 1.414 1.414L37.297 19.26zm-3.535 12.021a.997.997 0 0 0 1.414 0l7.071-7.071a.999.999 0 1 0-1.414-1.414l-7.071 7.071a.999.999 0 0 0 0 1.414zm-5.658 4.242l-1.414 1.414a.999.999 0 1 0 1.414 1.414l1.414-1.414a.999.999 0 1 0-1.414-1.414zm.708-19.091a.999.999 0 0 0-1.414 0L16.791 27.038a.999.999 0 1 0 1.414 1.414l10.606-10.606a1 1 0 0 0 .001-1.414zM31.64 14.6c.26 0 .521-.1.71-.29.181-.189.29-.439.29-.71 0-.26-.109-.52-.3-.71-.37-.37-1.03-.37-1.41.01-.18.181-.29.44-.29.7s.11.521.29.71c.19.19.45.29.71.29zm-9.19 16.68a.986.986 0 0 0-.29.71c0 .27.1.52.29.699.18.19.439.301.71.301.26 0 .52-.11.699-.29.19-.19.301-.45.301-.71 0-.261-.11-.521-.301-.71-.369-.37-1.04-.37-1.409 0zm9.9 2.829c.181-.18.29-.439.29-.71 0-.26-.109-.52-.29-.71-.38-.37-1.04-.37-1.42 0-.18.19-.29.45-.29.71 0 .271.11.521.29.71.19.19.45.29.71.29s.52-.099.71-.29z" fill="#cbb292"/><path d="M25.276 48.252l-.625-.625a4.983 4.983 0 0 0 .814-3.172 3.438 3.438 0 0 0-1.28-2.403 3.66 3.66 0 0 0-2.738-.781l-2.802.35-3.846-3.846a2.995 2.995 0 0 1 3.406.577.999.999 0 1 0 1.414-1.414 5.01 5.01 0 0 0-6.293-.635l-.779-.779a.999.999 0 1 0-1.414 1.414l.781.781a4.986 4.986 0 0 0-.813 3.172 3.438 3.438 0 0 0 1.279 2.402 3.66 3.66 0 0 0 2.739.783l2.802-.35 3.836 3.836c-1.111.501-2.51.318-3.396-.568a.999.999 0 1 0-1.414 1.414 4.965 4.965 0 0 0 3.535 1.465c.996 0 1.946-.291 2.757-.829l.622.622a.997.997 0 0 0 1.414 0 .998.998 0 0 0 .001-1.414zm-10.404-6.16a1.637 1.637 0 0 1-1.231-.352 1.462 1.462 0 0 1-.547-1.016 2.99 2.99 0 0 1 .295-1.532l2.742 2.742-1.259.158zm6.824 1.163c.433-.059.886.072 1.229.351.32.26.515.62.548 1.016a2.981 2.981 0 0 1-.296 1.532l-2.741-2.741 1.26-.158z" fill="#4c8056"/></svg>