<svg xmlns="http://www.w3.org/2000/svg" viewBox="0 0 512 512"><path d="M17.66 397.246a8.83 8.83 0 0 1-8.151-5.436c-1.875-4.5.25-9.668 4.75-11.543l102.508-42.716 51.586-128.97a8.83 8.83 0 0 1 6.422-5.366c2.926-.582 5.918.31 8.018 2.406l72.931 72.927 66.595-72.651c3.293-3.586 8.879-3.837 12.474-.543a8.83 8.83 0 0 1 .543 12.474l-72.828 79.448a8.853 8.853 0 0 1-6.319 2.862c-2.229.039-4.733-.884-6.431-2.586l-69.983-69.983-47.991 119.987a8.822 8.822 0 0 1-4.802 4.866l-105.93 44.139a8.784 8.784 0 0 1-3.392.685zm370.758-218.483a8.825 8.825 0 0 1-8.09-5.293 8.825 8.825 0 0 1 4.547-11.625L490.806 115.5a8.825 8.825 0 0 1 11.625 4.547 8.825 8.825 0 0 1-4.547 11.625l-105.931 46.345a8.805 8.805 0 0 1-3.535.746z" fill="#8f96ac"/><circle cx="494.345" cy="123.586" r="17.655" fill="#9be6d2"/><circle cx="256" cy="291.31" r="17.655" fill="#ffd782"/><circle cx="176.552" cy="211.862" r="17.655" fill="#ffa05a"/><circle cx="123.586" cy="344.276" r="17.655" fill="#ff6464"/><circle cx="17.655" cy="388.414" r="17.655" fill="#00d2ff"/><g fill="#d7deed"><circle cx="353.103" cy="8.828" r="8.828"/><circle cx="353.103" cy="44.138" r="8.828"/><circle cx="353.103" cy="79.448" r="8.828"/><circle cx="353.103" cy="114.759" r="8.828"/></g><circle cx="353.103" cy="185.379" r="17.655" fill="#c3e678"/><g fill="#d7deed"><circle cx="353.103" cy="256" r="8.828"/><circle cx="353.103" cy="291.31" r="8.828"/><circle cx="353.103" cy="326.621" r="8.828"/><circle cx="353.103" cy="361.931" r="8.828"/><circle cx="353.103" cy="397.241" r="8.828"/><circle cx="353.103" cy="432.552" r="8.828"/><circle cx="353.103" cy="467.862" r="8.828"/><circle cx="353.103" cy="503.172" r="8.828"/><path d="M353.103 229.517c-24.337 0-44.138-19.801-44.138-44.138s19.801-44.138 44.138-44.138 44.138 19.801 44.138 44.138-19.801 44.138-44.138 44.138zm0-70.62c-14.603 0-26.483 11.88-26.483 26.483s11.88 26.483 26.483 26.483 26.483-11.88 26.483-26.483-11.88-26.483-26.483-26.483z"/></g></svg>