<svg viewBox="0 0 64 64" xmlns="http://www.w3.org/2000/svg"><path d="M32 22.8c-.9 0-2 2-2 4.5s1.1 4.5 2 4.5c.9 0 2-2 2-4.5s-1.1-4.5-2-4.5z" fill="#C6BF66"/><path d="M52 38.9l-9.8-10-7.6-7.8c-.2-.2-.3-.4-.3-.6-.4-7-1.5-10.7-2.3-12.5-.8 1.8-1.9 5.6-2.3 12.5 0 .2-.1.5-.3.6l-7.5 7.7-.1.1-4.8 4.8c0 .1-.1.1-.2.2l-9 9.2v5.3l19.5-10.5c.3-.2.7-.2 1 .1.3.2.5.6.4.9 0 .1-.7 6.2.6 10.1.1.4 0 .8-.3 1.1l-4.7 4 .2 2.7 6.3-2v-2.5c0-.6.4-1 1-1s1 .4 1 1v2.5l6.3 2 .2-2.7-4.7-4c-.3-.3-.4-.7-.3-1.1 1.3-3.9.6-10 .6-10.1 0-.4.1-.7.4-.9.3-.2.7-.2 1-.1l19.5 10.5v-5.3l-3.9-4c.2-.1.1-.1.1-.2zm-20-5c-2.3 0-4-2.9-4-6.5 0-3.7 1.8-6.5 4-6.5 2.3 0 4 2.9 4 6.5s-1.7 6.5-4 6.5z" fill="#798C49"/><path d="M53.8 37.8v-4c0-.6-.4-1-1-1s-1 .4-1 1v1.9l-2.9-2.9v-4.2c0-.6-.4-1-1-1s-1 .4-1 1v2.1l-3-3.1v-4c0-.6-.4-1-1-1s-1 .4-1 1v2L36.3 20c-.7-11.3-3.4-14.6-3.5-14.8-.4-.4-1.1-.4-1.5 0-.1.1-2.9 3.4-3.5 14.7l-5.6 5.7v-2c0-.6-.4-1-1-1s-1 .4-1 1v4l-2.9 2.9v-1.9c0-.6-.4-1-1-1s-1 .4-1 1v4l-3.1 3.2v-2c0-.6-.4-1-1-1s-1 .4-1 1v4l-4 4c-.2.2-.3.4-.3.7v7.4c0 .4.2.7.5.9.3.2.7.2 1 0l19.4-10.4c-.1 2.1-.2 5.6.6 8.4l-4.6 3.9c-.2.2-.4.5-.4.8l.3 4.5c0 .3.2.6.4.8.3.2.6.2.9.1l7.9-2.5 7.9 2.5h.3c.2 0 .4-.1.6-.2.3-.2.4-.5.4-.8l.3-4.5c0-.3-.1-.6-.4-.8l-4.6-3.9c.8-2.8.7-6.3.6-8.4l19.4 10.4c.3.2.7.2 1 0 .3-.2.5-.5.5-.9v-7.4c0-.3-.1-.5-.3-.7l-3.8-3.9zm2.3 10.6L36.6 37.9c-.3-.2-.7-.2-1 .1-.3.2-.5.6-.4.9 0 .1.7 6.1-.6 10.1-.1.4 0 .8.3 1.1l4.7 4-.2 2.7-6.3-2v-2.5c0-.6-.4-1-1-1s-1 .4-1 1v2.5l-6.3 2-.3-2.8 4.7-4c.3-.3.4-.7.3-1.1-1.3-3.9-.6-10-.6-10.1 0-.4-.1-.7-.4-.9-.3-.2-.7-.2-1-.1L7.9 48.4v-5.3l9-9.2c.1 0 .1-.1.2-.2l4.7-4.8.1-.1 7.5-7.7c.2-.2.3-.4.3-.6.4-7 1.5-10.7 2.3-12.5.8 1.8 1.9 5.6 2.3 12.5 0 .2.1.5.3.6l7.6 7.8 9.8 10c.1.1.1.2.2.2l3.9 4v5.3z" fill="#1F2310"/><path d="M32 20.8c-2.3 0-4 2.9-4 6.5 0 3.7 1.8 6.5 4 6.5 2.3 0 4-2.9 4-6.5s-1.7-6.5-4-6.5zm0 11.1c-.9 0-2-2-2-4.5s1.1-4.5 2-4.5c.9 0 2 2 2 4.5s-1.1 4.5-2 4.5z" fill="#1F2310"/></svg>