<svg xmlns="http://www.w3.org/2000/svg" viewBox="0 0 64 64" width="512" height="512"><linearGradient id="a" gradientUnits="userSpaceOnUse" x1="33.063" y1="10" x2="33.063" y2="18.073" spreadMethod="reflect"><stop offset="0" stop-color="#6dc7ff"/><stop offset="1" stop-color="#e6abff"/></linearGradient><path d="M38.125 17.073L32 11l-4 4" fill="none" stroke="url(#a)" stroke-width="2" stroke-linecap="round" stroke-linejoin="round" stroke-miterlimit="10"/><linearGradient id="b" gradientUnits="userSpaceOnUse" x1="33.013" y1="-19.953" x2="33.013" y2="-25.927" gradientTransform="matrix(1 0 0 -1 0 28.073)" spreadMethod="reflect"><stop offset="0" stop-color="#6dc7ff"/><stop offset="1" stop-color="#e6abff"/></linearGradient><path d="M30 51l2 2 4.026-3.974" fill="none" stroke="url(#b)" stroke-width="2" stroke-linecap="round" stroke-linejoin="round" stroke-miterlimit="10"/><linearGradient id="c" gradientUnits="userSpaceOnUse" x1="32" y1="5" x2="32" y2="59" spreadMethod="reflect"><stop offset="0" stop-color="#1a6dff"/><stop offset="1" stop-color="#c822ff"/></linearGradient><path d="M40.708 33.625l10.136-10.198 6.154 6.154a3.42 3.42 0 0 1 0 4.838l-7.748 7.748-8.542-8.542zm-6.344 6.383l-10.853 10.92 6.07 6.07a3.42 3.42 0 0 0 4.838 0l8.467-8.467-8.522-8.523zM15 21.583l-7.998 7.998a3.42 3.42 0 0 0 0 4.838L15 42.417V21.583zm9 16.085l20.48-20.606-10.061-10.06a3.42 3.42 0 0 0-4.838 0L24 12.583v25.085z" fill="none" stroke="url(#c)" stroke-width="2" stroke-linecap="round" stroke-linejoin="round" stroke-miterlimit="10"/></svg>